<svg xmlns="http://www.w3.org/2000/svg" viewBox="0 0 520 160" role="img" aria-labelledby="title desc"><title id="title">CR Engenharia</title><desc id="desc">Logo corporativo CR Engenharia</desc><rect width="520" height="160" rx="18" fill="#ffffff"/><g transform="translate(20 18)"><path d="M22 62c0-29 22-50 52-50h44v25H75c-14 0-25 10-25 25s11 25 25 25h31V67H82V44h59v68H74c-30 0-52-21-52-50Z" fill="#0f2747"/><path d="M150 12h46c27 0 45 16 45 40 0 17-9 29-25 35l29 37h-34l-25-33h-8v33h-28V12Zm28 24v32h16c12 0 19-6 19-16s-7-16-19-16h-16Z" fill="#0f2747"/></g><text x="278" y="72" font-family="Arial,Helvetica,sans-serif" font-size="34" font-weight="700" fill="#2f7d32" letter-spacing="1.5">ENGENHARIA</text><text x="280" y="106" font-family="Arial,Helvetica,sans-serif" font-size="18" font-weight="600" fill="#587060" letter-spacing="3">ESTRATÉGICA</text></svg>